<svg width="1064" height="915" viewBox="0 0 1064 915" fill="none" xmlns="http://www.w3.org/2000/svg">
<path fill-rule="evenodd" clip-rule="evenodd" d="M271.137 135.166C156.261 135.166 63.1366 228.291 63.1366 343.166V601.545C63.1366 638.314 72.6772 672.854 89.4178 702.826L1.40621 893.888C-3.7481 905.077 6.09902 917.418 17.432 913.973L360.886 809.545H855.541C970.416 809.545 1063.54 716.42 1063.54 601.545V343.166C1063.54 228.291 970.416 135.166 855.541 135.166H271.137Z" fill="url(#paint0_linear_3_11)"/>
<path d="M454.595 28.6807L454.595 28.6804C455.774 24.9605 457.856 21.7988 460.527 19.5531C463.192 17.3126 466.33 16.0759 469.548 15.9371L682.499 6.96874C685.29 6.86541 688.092 7.58936 690.646 9.10878C693.205 10.6317 695.439 12.9106 697.105 15.7654C698.771 18.6208 699.8 21.9374 700.075 25.4C700.351 28.8626 699.86 32.3266 698.665 35.4582L698.664 35.4611L641.543 185.66L640.194 189.206L643.985 189.046L758.088 184.241C765.167 184.07 772.2 186.343 778.296 190.836C784.403 195.338 789.298 201.871 792.306 209.645C795.315 217.42 796.285 226.043 795.084 234.41C793.883 242.778 790.572 250.464 785.619 256.509L785.604 256.527L785.59 256.546L785.5 256.66L785.479 256.685L468.417 637.215L468.416 637.217C465.83 640.325 462.485 642.282 458.924 642.881C455.369 643.479 451.696 642.709 448.455 640.623C445.205 638.53 442.555 635.215 440.983 631.13C439.412 627.044 439.029 622.473 439.902 618.137L438.252 617.805L439.902 618.137L498.214 328.622L498.844 325.496L495.658 325.63L413.243 329.101C407.387 329.312 401.535 327.849 396.195 324.81C390.848 321.767 386.169 317.229 382.596 311.561C379.023 305.893 376.677 299.285 375.785 292.318C374.893 285.35 375.485 278.263 377.501 271.685L377.504 271.675L377.507 271.665L377.569 271.458L454.595 28.6807Z" fill="url(#paint1_linear_3_11)" stroke="white" stroke-width="5"/>
<defs>
<linearGradient id="paint0_linear_3_11" x1="975.054" y1="218.102" x2="-33.8441" y2="861.545" gradientUnits="userSpaceOnUse">
<stop stop-color="#240F5F"/>
<stop offset="1" stop-color="#2BECEC"/>
</linearGradient>
<linearGradient id="paint1_linear_3_11" x1="575.052" y1="8.99159" x2="474.37" y2="589.442" gradientUnits="userSpaceOnUse">
<stop stop-color="#F2EA16"/>
<stop offset="1" stop-color="#A46300"/>
</linearGradient>
</defs>
</svg>
